<svg width="576" height="512" xmlns="http://www.w3.org/2000/svg" xmlns:svg="http://www.w3.org/2000/svg">
    <g class="layer">
        <title>Layer 1</title>
        <path fill="#56aaff" id="svg_1" d="m528,32l-480,0c-26.5,0 -48,21.5 -48,48l0,352c0,26.5 21.5,48 48,48l480,0c26.5,0 48,-21.5 48,-48l0,-352c0,-26.5 -21.5,-48 -48,-48zm0,400l-224.8,0c0.9,-4.5 0.8,3.6 0.8,-22.4c0,-31.8 -30.1,-57.6 -67.2,-57.6c-10.8,0 -18.7,8 -44.8,8c-26.9,0 -33.4,-8 -44.8,-8c-37.1,0 -67.2,25.8 -67.2,57.6c0,26 -0.2,17.9 0.8,22.4l-32.8,0l0,-288l480,0l0,288zm-168,-80l112,0c4.4,0 8,-3.6 8,-8l0,-16c0,-4.4 -3.6,-8 -8,-8l-112,0c-4.4,0 -8,3.6 -8,8l0,16c0,4.4 3.6,8 8,8zm0,-64l112,0c4.4,0 8,-3.6 8,-8l0,-16c0,-4.4 -3.6,-8 -8,-8l-112,0c-4.4,0 -8,3.6 -8,8l0,16c0,4.4 3.6,8 8,8zm0,-64l112,0c4.4,0 8,-3.6 8,-8l0,-16c0,-4.4 -3.6,-8 -8,-8l-112,0c-4.4,0 -8,3.6 -8,8l0,16c0,4.4 3.6,8 8,8zm-168,96c35.3,0 64,-28.7 64,-64s-28.7,-64 -64,-64s-64,28.7 -64,64s28.7,64 64,64z"/>
    </g>
</svg>